<?xml version="1.0" encoding="UTF-8" standalone="no"?>
<!-- Created with Inkscape (http://www.inkscape.org/) -->

<svg
   width="48"
   height="48"
   viewBox="0 0 48 48"
   version="1.1"
   id="svg1"
   xml:space="preserve"
   inkscape:version="1.4.3 (0d15f75, 2025-12-25)"
   sodipodi:docname="drawing.svg"
   xmlns:inkscape="http://www.inkscape.org/namespaces/inkscape"
   xmlns:sodipodi="http://sodipodi.sourceforge.net/DTD/sodipodi-0.dtd"
   xmlns="http://www.w3.org/2000/svg"
   xmlns:svg="http://www.w3.org/2000/svg"><sodipodi:namedview
     id="namedview1"
     pagecolor="#ffffff"
     bordercolor="#000000"
     borderopacity="0.25"
     inkscape:showpageshadow="2"
     inkscape:pageopacity="0.0"
     inkscape:pagecheckerboard="0"
     inkscape:deskcolor="#d1d1d1"
     inkscape:document-units="mm"
     inkscape:zoom="9.0032669"
     inkscape:cx="29.933579"
     inkscape:cy="10.385119"
     inkscape:window-width="1512"
     inkscape:window-height="920"
     inkscape:window-x="0"
     inkscape:window-y="34"
     inkscape:window-maximized="1"
     inkscape:current-layer="layer1" /><defs
     id="defs1" /><g
     inkscape:label="Layer 1"
     inkscape:groupmode="layer"
     id="layer1"><path
       style="fill:#000000;stroke-width:0.0799791"
       d="m 16.104873,35.980096 c -0.639749,-0.05378 -1.347535,-0.288612 -1.927825,-0.639637 -0.394852,-0.238849 -0.617893,-0.424353 -1.034477,-0.860358 -0.421236,-0.440879 -0.776293,-1.104613 -0.960129,-1.794826 -0.198573,-0.745545 -0.230967,-1.301604 -0.117045,-2.007749 0.118485,-0.734301 0.454617,-1.545528 0.874802,-2.111276 0.14922,-0.200945 0.537412,-0.603689 0.738827,-0.766572 0.421563,-0.340912 1.165749,-0.72578 1.752481,-0.906314 0.08159,-0.0252 0.186456,-0.05793 0.233057,-0.07299 0.493703,-0.159314 1.62692,-0.366939 2.765056,-0.506629 0.549894,-0.0675 1.164724,-0.124351 1.179996,-0.109111 0.01841,0.01836 0.0123,0.247019 -0.02392,0.901206 -0.04874,0.881061 -0.05742,1.002246 -0.07304,1.019186 -0.0076,0.0085 -0.204537,0.03473 -0.437333,0.0584 -1.332149,0.135661 -2.482182,0.335268 -3.056082,0.530424 -0.513553,0.174639 -1.009739,0.457201 -1.252238,0.713113 -0.277937,0.293315 -0.387885,0.457255 -0.53195,0.793193 -0.205852,0.480032 -0.269601,0.821879 -0.248773,1.334023 0.0099,0.241291 0.02392,0.337468 0.07561,0.518192 0.163456,0.570609 0.4233,0.985455 0.840619,1.342075 0.145245,0.124126 0.252509,0.191901 0.48485,0.306427 0.516103,0.254387 1.009556,0.340131 1.633208,0.283823 0.356436,-0.03216 0.848829,-0.208234 1.173315,-0.419516 0.18816,-0.122505 0.475199,-0.393555 0.623609,-0.588845 0.476347,-0.626833 0.755806,-1.613019 0.998466,-3.523469 0.0984,-0.774751 0.167524,-1.492329 0.192393,-1.997183 0.0069,-0.139471 0.01651,-0.296402 0.02116,-0.348713 0.0046,-0.05232 0.01485,-0.294819 0.02251,-0.538921 0.0077,-0.24411 0.01841,-0.462841 0.02364,-0.48609 0.0055,-0.02332 0.0141,-0.902958 0.01924,-1.954912 l 0.0093,-1.912645 0.06831,0.0048 c 0.248112,0.01776 1.457811,0.09009 1.610213,0.09627 0.10221,0.0042 0.194148,0.01637 0.204259,0.02717 0.0102,0.0108 0.02524,0.319195 0.03348,0.685342 0.0083,0.366151 0.01867,0.737056 0.0234,0.824233 0.01065,0.207986 -0.02801,1.984195 -0.05466,2.501528 -0.01155,0.222435 -0.0258,0.504285 -0.03204,0.626335 -0.01455,0.289418 -0.03296,0.590811 -0.06404,1.056717 -0.08403,1.259334 -0.233827,2.428938 -0.446718,3.487145 -0.137445,0.683229 -0.426591,1.518438 -0.702393,2.028885 -0.265754,0.491877 -0.509087,0.818677 -0.859847,1.154852 -0.269023,0.257843 -0.590445,0.490891 -0.981438,0.711618 -0.424945,0.239889 -1.113927,0.461 -1.649429,0.52933 -0.261465,0.03336 -0.821334,0.03892 -1.148824,0.01155 z m 14.698659,-0.0096 c -0.372348,-0.04694 -0.60806,-0.103711 -1.05941,-0.255273 -0.364152,-0.12225 -1.013111,-0.48128 -1.324259,-0.732596 -0.187939,-0.151804 -0.5829,-0.549309 -0.711158,-0.715744 -0.395688,-0.513469 -0.686457,-1.115589 -0.930105,-1.926057 -0.14178,-0.471583 -0.193957,-0.68344 -0.264022,-1.071647 -0.136335,-0.755427 -0.225528,-1.354666 -0.276755,-1.859812 -0.01815,-0.180169 -0.0472,-0.464141 -0.06427,-0.631051 -0.01709,-0.166905 -0.02525,-0.312928 -0.01812,-0.324491 0.008,-0.0132 0.09363,-0.0162 0.227588,-0.008 0.250312,0.01536 0.51247,0.02848 0.881995,0.04447 0.659456,0.0286 0.826337,0.04599 0.826337,0.08633 0,0.08589 0.07152,0.707211 0.1287,1.117989 0.156785,1.126368 0.328469,1.926206 0.521178,2.427853 0.317321,0.826019 0.735777,1.323402 1.37033,1.628789 0.400112,0.192558 0.738747,0.265216 1.242776,0.266642 0.518392,0.0014 0.845638,-0.07395 1.294559,-0.298311 0.496789,-0.248313 0.844266,-0.601091 1.097899,-1.114694 0.12441,-0.25192 0.1359,-0.281953 0.203685,-0.532683 0.07429,-0.274735 0.09567,-0.821008 0.04383,-1.120112 -0.0717,-0.413726 -0.229693,-0.841184 -0.41842,-1.13213 -0.05331,-0.08217 -0.183353,-0.23956 -0.288995,-0.349797 -0.584874,-0.610228 -1.475405,-0.919689 -3.362774,-1.168556 -0.64286,-0.08477 -0.986913,-0.118471 -1.853964,-0.181708 -0.320471,-0.02328 -0.625582,-0.04673 -0.678022,-0.05188 -0.12321,-0.012 -0.379294,-0.02897 -0.646237,-0.04232 -0.685857,-0.03444 -1.231634,-0.04298 -2.738573,-0.04298 h -1.679164 l 3e-6,-0.0851 c 0,-0.04681 0.009,-0.160931 0.02007,-0.253619 0.01095,-0.09269 0.03017,-0.387258 0.04274,-0.654606 0.03439,-0.733573 0.04553,-0.885784 0.06616,-0.907403 0.02393,-0.02496 2.555492,-0.03392 3.24009,-0.01155 0.947199,0.03101 1.345801,0.04566 1.4302,0.05268 0.0466,0.0038 0.232536,0.0135 0.413169,0.0214 0.180629,0.008 0.333185,0.01704 0.339013,0.02028 0.0058,0.0033 0.115485,0.0123 0.243663,0.02028 0.128175,0.0076 0.271221,0.01836 0.31782,0.02332 0.04661,0.0049 0.251601,0.02383 0.455545,0.04209 0.437901,0.039 0.86741,0.08586 1.05941,0.115546 0.07575,0.0117 0.376089,0.05531 0.667427,0.09689 1.431349,0.20415 2.412848,0.506615 3.199392,0.98587 0.775305,0.472413 1.316957,1.069189 1.697986,1.870805 0.307996,0.64798 0.475029,1.38658 0.479092,2.118546 0.0039,0.693412 -0.171259,1.445061 -0.48996,2.103233 -0.217995,0.450236 -0.445065,0.766887 -0.816669,1.138932 -0.709847,0.710689 -1.647386,1.165135 -2.662259,1.29046 -0.316832,0.03912 -0.915272,0.03892 -1.22751,-3.97e-4 z M 27.635901,25.730214 c -0.13986,-0.009 -0.41158,-0.0266 -0.603864,-0.03893 -0.192285,-0.0123 -0.48786,-0.02276 -0.656833,-0.02304 -0.168984,-2.65e-4 -0.317861,-0.0073 -0.330857,-0.01591 -0.0129,-0.0085 -0.02904,-0.03456 -0.03568,-0.05779 -0.03576,-0.125746 -0.05709,-2.385388 -0.02693,-2.863681 0.0063,-0.09881 0.01812,-0.398381 0.0264,-0.665728 0.0083,-0.267351 0.01624,-0.490841 0.01788,-0.496652 0.0015,-0.0058 0.0096,-0.143717 0.01788,-0.306447 0.0085,-0.162734 0.01924,-0.343432 0.02421,-0.401551 0.0049,-0.05813 0.01455,-0.219799 0.02144,-0.359283 0.01788,-0.361496 0.04866,-0.809235 0.0735,-1.067278 0.01185,-0.122055 0.04104,-0.426382 0.06511,-0.676293 0.141435,-1.469076 0.360219,-2.625003 0.653948,-3.45543 0.278517,-0.787546 0.731661,-1.529809 1.23032,-2.015372 0.637624,-0.620884 1.507044,-1.055145 2.436969,-1.217229 0.610619,-0.106426 1.333146,-0.08762 1.970501,0.05129 0.920966,0.200722 1.813182,0.743104 2.442073,1.484549 0.509083,0.600196 0.888175,1.516422 1.003119,2.424421 0.11622,0.91823 -0.09625,2.05895 -0.52584,2.822895 -0.787705,1.400791 -2.104343,2.202902 -4.250739,2.589598 -0.786957,0.141781 -2.358392,0.337487 -2.70984,0.337487 -0.105405,0 -0.111855,-0.003 -0.102645,-0.04755 0.0055,-0.02616 0.01536,-0.218747 0.02196,-0.427968 0.01485,-0.456854 0.03012,-0.743086 0.06171,-1.151814 l 0.02364,-0.306446 0.190687,-0.0147 c 0.477429,-0.03657 0.698135,-0.06025 1.25012,-0.134206 1.86071,-0.249307 2.69917,-0.541973 3.327494,-1.161455 0.390717,-0.385207 0.648192,-0.90129 0.74039,-1.484065 0.05658,-0.35758 0.03654,-0.83942 -0.04869,-1.171245 -0.127815,-0.497608 -0.332544,-0.852596 -0.689598,-1.195686 -0.219894,-0.21132 -0.359207,-0.308799 -0.631734,-0.442094 -0.391004,-0.191233 -0.850925,-0.285946 -1.320644,-0.271957 -1.141518,0.03401 -2.01448,0.62059 -2.453378,1.648574 -0.206679,0.484062 -0.411923,1.27533 -0.53454,2.060712 -0.01896,0.121981 -0.04816,0.307375 -0.06471,0.411991 -0.05201,0.329069 -0.10575,0.825222 -0.178541,1.648467 -0.0123,0.139487 -0.02691,0.296405 -0.03211,0.348714 -0.01732,0.168506 -0.0507,0.781295 -0.06517,1.194083 -0.0077,0.220849 -0.01709,0.425325 -0.02064,0.454385 -0.03161,0.257209 -0.04893,2.360555 -0.0288,3.495863 0.0058,0.327319 0.0015,0.506735 -0.0123,0.509243 -0.01155,0.0021 -0.1356,-0.0036 -0.275444,-0.0126 z m -4.449515,-3.79274 c -0.01155,-0.0035 -0.297696,-0.0117 -0.635648,-0.01831 -0.635124,-0.0123 -0.814989,-0.01913 -1.461982,-0.05531 -0.411621,-0.02304 -0.463355,-0.02628 -1.165349,-0.07395 -1.445496,-0.09816 -3.068159,-0.315224 -3.871556,-0.517901 -0.261467,-0.06595 -0.726853,-0.204314 -0.771722,-0.229422 -0.0217,-0.01215 -0.106065,-0.04715 -0.187638,-0.07791 -0.249707,-0.09414 -0.730083,-0.332181 -0.953465,-0.472485 -0.750051,-0.471095 -1.359339,-1.153339 -1.690478,-1.892899 -0.364422,-0.813892 -0.51526,-1.808663 -0.395992,-2.611517 0.131565,-0.885559 0.430602,-1.622799 0.907398,-2.23703 1.054832,-1.35888 2.768156,-1.988198 4.544354,-1.66918 0.943631,0.169482 1.738748,0.566564 2.384066,1.190599 0.259272,0.250705 0.427589,0.453632 0.625038,0.753496 0.47869,0.726981 0.776414,1.565219 0.997667,2.808925 0.12609,0.708705 0.183761,1.120175 0.287469,2.05002 0.0123,0.110431 0.02669,0.234062 0.03159,0.274743 0.0049,0.04069 0.01567,0.147675 0.02364,0.237757 l 0.01455,0.16379 -0.07191,-2.39e-4 c -0.03956,-7.9e-5 -0.205404,-0.009 -0.368556,-0.01975 -0.163156,-0.0108 -0.434889,-0.02552 -0.603865,-0.03284 -0.168984,-0.0072 -0.426415,-0.02191 -0.572086,-0.03247 -0.14568,-0.0105 -0.275791,-0.01949 -0.289164,-0.01975 -0.02957,-7.59e-4 -0.05631,-0.150356 -0.113295,-0.634662 -0.145305,-1.234253 -0.333963,-2.22411 -0.543274,-2.850317 -0.10482,-0.31358 -0.317895,-0.742792 -0.46827,-0.94324 -0.233276,-0.310964 -0.553708,-0.58392 -0.884933,-0.753834 -0.475079,-0.243707 -1.027817,-0.346649 -1.580723,-0.294394 -1.217022,0.115021 -2.089221,0.881116 -2.34191,2.057001 -0.05661,0.263442 -0.0518,0.799452 0.0099,1.099278 0.08226,0.399883 0.266744,0.829074 0.474254,1.103375 0.622705,0.823165 1.499732,1.174892 3.607971,1.446963 0.592052,0.07641 0.861575,0.10176 2.150599,0.202386 0.227232,0.01776 0.527586,0.04124 0.667428,0.05223 0.713649,0.05604 1.530398,0.07478 3.194561,0.07325 l 1.563073,-0.0015 -0.0099,0.07539 c -0.01867,0.140867 -0.06111,0.735636 -0.09924,1.389598 l -0.02612,0.447695 -0.192337,0.0074 c -0.241437,0.0093 -2.155324,0.01365 -2.184024,0.0051 z"
       id="path9"
       sodipodi:nodetypes="sssssssscssssssssssssssssssssscscsssssssssssssssssssssssssssssssssssssssscsssssssssssssssssssssssccssscsssssssssssssscsscssssssssssssscssssssssssssssssssssssccsssscssssssssssscssccss" /><path
       style="fill:#39cc38;fill-opacity:1;stroke-width:3.84258"
       d=""
       id="path16"
       transform="scale(0.26458333)" /><path
       style="fill:#39cc38;fill-opacity:1;stroke-width:3.84258"
       d=""
       id="path17"
       transform="scale(0.26458333)" /><path
       style="fill:#39cc38;fill-opacity:1;stroke-width:3.84258"
       d=""
       id="path18"
       transform="scale(0.26458333)" /><path
       style="fill:#39cc38;fill-opacity:1;stroke-width:3.84258"
       d=""
       id="path19"
       transform="scale(0.26458333)" /><path
       style="fill:#00ffff;stroke-width:0.0799791"
       d="m 16.104873,35.980096 c -0.639749,-0.05378 -1.347535,-0.288612 -1.927825,-0.639637 -0.394852,-0.238849 -0.617893,-0.424353 -1.034477,-0.860358 -0.421236,-0.440879 -0.776293,-1.104613 -0.960129,-1.794826 -0.198573,-0.745545 -0.230967,-1.301604 -0.117045,-2.007749 0.118485,-0.734301 0.454617,-1.545528 0.874802,-2.111276 0.14922,-0.200945 0.537412,-0.603689 0.738827,-0.766572 0.421563,-0.340912 1.165749,-0.72578 1.752481,-0.906314 0.08159,-0.0252 0.186456,-0.05793 0.233057,-0.07299 0.493703,-0.159314 1.62692,-0.366939 2.765056,-0.506629 0.549894,-0.0675 1.164724,-0.124351 1.179996,-0.109111 0.01841,0.01836 0.0123,0.247019 -0.02392,0.901206 -0.04874,0.881061 -0.05742,1.002246 -0.07304,1.019186 -0.0076,0.0085 -0.204537,0.03473 -0.437333,0.0584 -1.332149,0.135661 -2.482182,0.335268 -3.056082,0.530424 -0.513553,0.174639 -1.009739,0.457201 -1.252238,0.713113 -0.277937,0.293315 -0.387885,0.457255 -0.53195,0.793193 -0.205852,0.480032 -0.269601,0.821879 -0.248773,1.334023 0.0099,0.241291 0.02392,0.337468 0.07561,0.518192 0.163456,0.570609 0.4233,0.985455 0.840619,1.342075 0.145245,0.124126 0.252509,0.191901 0.48485,0.306427 0.516103,0.254387 1.009556,0.340131 1.633208,0.283823 0.356436,-0.03216 0.848829,-0.208234 1.173315,-0.419516 0.18816,-0.122505 0.475199,-0.393555 0.623609,-0.588845 0.476347,-0.626833 0.755806,-1.613019 0.998466,-3.523469 0.0984,-0.774751 0.167524,-1.492329 0.192393,-1.997183 0.0069,-0.139471 0.01651,-0.296402 0.02116,-0.348713 0.0046,-0.05232 0.01485,-0.294819 0.02251,-0.538921 0.0077,-0.24411 0.01841,-0.462841 0.02364,-0.48609 0.0055,-0.02332 0.0141,-0.902958 0.01924,-1.954912 l 0.0093,-1.912645 0.06831,0.0048 c 0.248112,0.01776 1.457811,0.09009 1.610213,0.09627 0.10221,0.0042 0.194148,0.01637 0.204259,0.02717 0.0102,0.0108 0.02524,0.319195 0.03348,0.685342 0.0083,0.366151 0.01867,0.737056 0.0234,0.824233 0.01065,0.207986 -0.02801,1.984195 -0.05466,2.501528 -0.01155,0.222435 -0.0258,0.504285 -0.03204,0.626335 -0.01455,0.289418 -0.03296,0.590811 -0.06404,1.056717 -0.08403,1.259334 -0.233827,2.428938 -0.446718,3.487145 -0.137445,0.683229 -0.426591,1.518438 -0.702393,2.028885 -0.265754,0.491877 -0.509087,0.818677 -0.859847,1.154852 -0.269023,0.257843 -0.590445,0.490891 -0.981438,0.711618 -0.424945,0.239889 -1.113927,0.461 -1.649429,0.52933 -0.261465,0.03336 -0.821334,0.03892 -1.148824,0.01155 z m 14.698659,-0.0096 c -0.372348,-0.04694 -0.60806,-0.103711 -1.05941,-0.255273 -0.364152,-0.12225 -1.013111,-0.48128 -1.324259,-0.732596 -0.187939,-0.151804 -0.5829,-0.549309 -0.711158,-0.715744 -0.395688,-0.513469 -0.686457,-1.115589 -0.930105,-1.926057 -0.14178,-0.471583 -0.193957,-0.68344 -0.264022,-1.071647 -0.136335,-0.755427 -0.225528,-1.354666 -0.276755,-1.859812 -0.01815,-0.180169 -0.0472,-0.464141 -0.06427,-0.631051 -0.01709,-0.166905 -0.02525,-0.312928 -0.01812,-0.324491 0.008,-0.0132 0.09363,-0.0162 0.227588,-0.008 0.250312,0.01536 0.51247,0.02848 0.881995,0.04447 0.659456,0.0286 0.826337,0.04599 0.826337,0.08633 0,0.08589 0.07152,0.707211 0.1287,1.117989 0.156785,1.126368 0.328469,1.926206 0.521178,2.427853 0.317321,0.826019 0.735777,1.323402 1.37033,1.628789 0.400112,0.192558 0.738747,0.265216 1.242776,0.266642 0.518392,0.0014 0.845638,-0.07395 1.294559,-0.298311 0.496789,-0.248313 0.844266,-0.601091 1.097899,-1.114694 0.12441,-0.25192 0.1359,-0.281953 0.203685,-0.532683 0.07429,-0.274735 0.09567,-0.821008 0.04383,-1.120112 -0.0717,-0.413726 -0.229693,-0.841184 -0.41842,-1.13213 -0.05331,-0.08217 -0.183353,-0.23956 -0.288995,-0.349797 -0.584874,-0.610228 -1.475405,-0.919689 -3.362774,-1.168556 -0.64286,-0.08477 -0.986913,-0.118471 -1.853964,-0.181708 -0.320471,-0.02328 -0.625582,-0.04673 -0.678022,-0.05188 -0.12321,-0.012 -0.379294,-0.02897 -0.646237,-0.04232 -0.685857,-0.03444 -1.231634,-0.04298 -2.738573,-0.04298 h -1.679164 l 3e-6,-0.0851 c 0,-0.04681 0.009,-0.160931 0.02007,-0.253619 0.01095,-0.09269 0.03017,-0.387258 0.04274,-0.654606 0.03439,-0.733573 0.04553,-0.885784 0.06616,-0.907403 0.02393,-0.02496 2.555492,-0.03392 3.24009,-0.01155 0.947199,0.03101 1.345801,0.04566 1.4302,0.05268 0.0466,0.0038 0.232536,0.0135 0.413169,0.0214 0.180629,0.008 0.333185,0.01704 0.339013,0.02028 0.0058,0.0033 0.115485,0.0123 0.243663,0.02028 0.128175,0.0076 0.271221,0.01836 0.31782,0.02332 0.04661,0.0049 0.251601,0.02383 0.455545,0.04209 0.437901,0.039 0.86741,0.08586 1.05941,0.115546 0.07575,0.0117 0.376089,0.05531 0.667427,0.09689 1.431349,0.20415 2.412848,0.506615 3.199392,0.98587 0.775305,0.472413 1.316957,1.069189 1.697986,1.870805 0.307996,0.64798 0.475029,1.38658 0.479092,2.118546 0.0039,0.693412 -0.171259,1.445061 -0.48996,2.103233 -0.217995,0.450236 -0.445065,0.766887 -0.816669,1.138932 -0.709847,0.710689 -1.647386,1.165135 -2.662259,1.29046 -0.316832,0.03912 -0.915272,0.03892 -1.22751,-3.97e-4 z M 27.635901,25.730214 c -0.13986,-0.009 -0.41158,-0.0266 -0.603864,-0.03893 -0.192285,-0.0123 -0.48786,-0.02276 -0.656833,-0.02304 -0.168984,-2.65e-4 -0.317861,-0.0073 -0.330857,-0.01591 -0.0129,-0.0085 -0.02904,-0.03456 -0.03568,-0.05779 -0.03576,-0.125746 -0.05709,-2.385388 -0.02693,-2.863681 0.0063,-0.09881 0.01812,-0.398381 0.0264,-0.665728 0.0083,-0.267351 0.01624,-0.490841 0.01788,-0.496652 0.0015,-0.0058 0.0096,-0.143717 0.01788,-0.306447 0.0085,-0.162734 0.01924,-0.343432 0.02421,-0.401551 0.0049,-0.05813 0.01455,-0.219799 0.02144,-0.359283 0.01788,-0.361496 0.04866,-0.809235 0.0735,-1.067278 0.01185,-0.122055 0.04104,-0.426382 0.06511,-0.676293 0.141435,-1.469076 0.360219,-2.625003 0.653948,-3.45543 0.278517,-0.787546 0.731661,-1.529809 1.23032,-2.015372 0.637624,-0.620884 1.507044,-1.055145 2.436969,-1.217229 0.610619,-0.106426 1.333146,-0.08762 1.970501,0.05129 0.920966,0.200722 1.813182,0.743104 2.442073,1.484549 0.509083,0.600196 0.888175,1.516422 1.003119,2.424421 0.11622,0.91823 -0.09625,2.05895 -0.52584,2.822895 -0.787705,1.400791 -2.104343,2.202902 -4.250739,2.589598 -0.786957,0.141781 -2.358392,0.337487 -2.70984,0.337487 -0.105405,0 -0.111855,-0.003 -0.102645,-0.04755 0.0055,-0.02616 0.01536,-0.218747 0.02196,-0.427968 0.01485,-0.456854 0.03012,-0.743086 0.06171,-1.151814 l 0.02364,-0.306446 0.190687,-0.0147 c 0.477429,-0.03657 0.698135,-0.06025 1.25012,-0.134206 1.86071,-0.249307 2.69917,-0.541973 3.327494,-1.161455 0.390717,-0.385207 0.648192,-0.90129 0.74039,-1.484065 0.05658,-0.35758 0.03654,-0.83942 -0.04869,-1.171245 -0.127815,-0.497608 -0.332544,-0.852596 -0.689598,-1.195686 -0.219894,-0.21132 -0.359207,-0.308799 -0.631734,-0.442094 -0.391004,-0.191233 -0.850925,-0.285946 -1.320644,-0.271957 -1.141518,0.03401 -2.01448,0.62059 -2.453378,1.648574 -0.206679,0.484062 -0.411923,1.27533 -0.53454,2.060712 -0.01896,0.121981 -0.04816,0.307375 -0.06471,0.411991 -0.05201,0.329069 -0.10575,0.825222 -0.178541,1.648467 -0.0123,0.139487 -0.02691,0.296405 -0.03211,0.348714 -0.01732,0.168506 -0.0507,0.781295 -0.06517,1.194083 -0.0077,0.220849 -0.01709,0.425325 -0.02064,0.454385 -0.03161,0.257209 -0.04893,2.360555 -0.0288,3.495863 0.0058,0.327319 0.0015,0.506735 -0.0123,0.509243 -0.01155,0.0021 -0.1356,-0.0036 -0.275444,-0.0126 z m -4.449515,-3.79274 c -0.01155,-0.0035 -0.297696,-0.0117 -0.635648,-0.01831 -0.635124,-0.0123 -0.814989,-0.01913 -1.461982,-0.05531 -0.411621,-0.02304 -0.463355,-0.02628 -1.165349,-0.07395 -1.445496,-0.09816 -3.068159,-0.315224 -3.871556,-0.517901 -0.261467,-0.06595 -0.726853,-0.204314 -0.771722,-0.229422 -0.0217,-0.01215 -0.106065,-0.04715 -0.187638,-0.07791 -0.249707,-0.09414 -0.730083,-0.332181 -0.953465,-0.472485 -0.750051,-0.471095 -1.359339,-1.153339 -1.690478,-1.892899 -0.364422,-0.813892 -0.51526,-1.808663 -0.395992,-2.611517 0.131565,-0.885559 0.430602,-1.622799 0.907398,-2.23703 1.054832,-1.35888 2.768156,-1.988198 4.544354,-1.66918 0.943631,0.169482 1.738748,0.566564 2.384066,1.190599 0.259272,0.250705 0.427589,0.453632 0.625038,0.753496 0.47869,0.726981 0.776414,1.565219 0.997667,2.808925 0.12609,0.708705 0.183761,1.120175 0.287469,2.05002 0.0123,0.110431 0.02669,0.234062 0.03159,0.274743 0.0049,0.04069 0.01567,0.147675 0.02364,0.237757 l 0.01455,0.16379 -0.07191,-2.39e-4 c -0.03956,-7.9e-5 -0.205404,-0.009 -0.368556,-0.01975 -0.163156,-0.0108 -0.434889,-0.02552 -0.603865,-0.03284 -0.168984,-0.0072 -0.426415,-0.02191 -0.572086,-0.03247 -0.14568,-0.0105 -0.275791,-0.01949 -0.289164,-0.01975 -0.02957,-7.59e-4 -0.05631,-0.150356 -0.113295,-0.634662 -0.145305,-1.234253 -0.333963,-2.22411 -0.543274,-2.850317 -0.10482,-0.31358 -0.317895,-0.742792 -0.46827,-0.94324 -0.233276,-0.310964 -0.553708,-0.58392 -0.884933,-0.753834 -0.475079,-0.243707 -1.027817,-0.346649 -1.580723,-0.294394 -1.217022,0.115021 -2.089221,0.881116 -2.34191,2.057001 -0.05661,0.263442 -0.0518,0.799452 0.0099,1.099278 0.08226,0.399883 0.266744,0.829074 0.474254,1.103375 0.622705,0.823165 1.499732,1.174892 3.607971,1.446963 0.592052,0.07641 0.861575,0.10176 2.150599,0.202386 0.227232,0.01776 0.527586,0.04124 0.667428,0.05223 0.713649,0.05604 1.530398,0.07478 3.194561,0.07325 l 1.563073,-0.0015 -0.0099,0.07539 c -0.01867,0.140867 -0.06111,0.735636 -0.09924,1.389598 l -0.02612,0.447695 -0.192337,0.0074 c -0.241437,0.0093 -2.155324,0.01365 -2.184024,0.0051 z"
       id="path23"
       sodipodi:nodetypes="sssssssscssssssssssssssssssssscscsssssssssssssssssssssssssssssssssssssssscsssssssssssssssssssssssccssscsssssssssssssscsscssssssssssssscssssssssssssssssssssssccsssscssssssssssscssccss" /></g></svg>
